HIERARCHY
ROOT Hips
{
  OFFSET 53.1118 85.5353 9.25353
  CHANNELS 6 Xposition Yposition Zposition Zrotation Xrotation Yrotation
  JOINT spine
  {
    OFFSET 0 6.3926 0.367606
    CHANNELS 3 Zrotation Xrotation Yrotation
    JOINT spine1
    {
      OFFSET 0 9.17611 0
      CHANNELS 3 Zrotation Xrotation Yrotation
      JOINT spine2
      {
        OFFSET 0 8.79238 0
        CHANNELS 3 Zrotation Xrotation Yrotation
        JOINT Neck
        {
          OFFSET 0 22.5737 1.07624
          CHANNELS 3 Zrotation Xrotation Yrotation
          JOINT Head
          {
            OFFSET 0 6.82011 0
            CHANNELS 3 Zrotation Xrotation Yrotation
            End Site
            {
              OFFSET 0 16.5085 -5.44427
            }
          }
        }
        JOINT RightShoulder
        {
          OFFSET -3.70221 9.49509 -0.515508
          CHANNELS 3 Zrotation Xrotation Yrotation
          JOINT RightArm
          {
            OFFSET 0 12.4537 0
            CHANNELS 3 Zrotation Xrotation Yrotation
            JOINT RightArmRoll
            {
              OFFSET 0 6.28686 0
              CHANNELS 3 Zrotation Xrotation Yrotation
              JOINT RightForeArm
              {
                OFFSET 0 18.3114 0
                CHANNELS 3 Zrotation Xrotation Yrotation
                JOINT RightForeArmRoll
                {
                  OFFSET 0 7.05482 0
                  CHANNELS 3 Zrotation Xrotation Yrotation
                  JOINT RightHand
                  {
                    OFFSET 0 14.1575 0
                    CHANNELS 3 Zrotation Xrotation Yrotation
                    End Site
                    {
                      OFFSET 0 0 0
                    }
                  }
                }
              }
            }
          }
        }
        JOINT LeftShoulder
        {
          OFFSET 3.70221 9.49509 -0.515508
          CHANNELS 3 Zrotation Xrotation Yrotation
          JOINT LeftArm
          {
            OFFSET 0 12.4537 0
            CHANNELS 3 Zrotation Xrotation Yrotation
            JOINT LeftArmRoll
            {
              OFFSET 0 6.28686 0
              CHANNELS 3 Zrotation Xrotation Yrotation
              JOINT LeftForeArm
              {
                OFFSET 0 18.3114 0
                CHANNELS 3 Zrotation Xrotation Yrotation
                JOINT LeftForeArmRoll
                {
                  OFFSET 0 7.05483 0
                  CHANNELS 3 Zrotation Xrotation Yrotation
                  JOINT LeftHand
                  {
                    OFFSET 0 14.1575 0
                    CHANNELS 3 Zrotation Xrotation Yrotation
                    End Site
                    {
                      OFFSET 0 0 0
                    }
                  }
                }
              }
            }
          }
        }
      }
    }
  }
  JOINT RightUpLeg
  {
    OFFSET -5.66615 -1.03903 -0.87161
    CHANNELS 3 Zrotation Xrotation Yrotation
    JOINT RightUpLegRoll
    {
      OFFSET 0 16.6005 0
      CHANNELS 3 Zrotation Xrotation Yrotation
      JOINT RightLeg
      {
        OFFSET 0 -20.5572 0
        CHANNELS 3 Zrotation Xrotation Yrotation
        JOINT RightLegRoll
        {
          OFFSET 0 20.6244 0
          CHANNELS 3 Zrotation Xrotation Yrotation
          JOINT RightFoot
          {
            OFFSET 0 17.1664 0
            CHANNELS 3 Zrotation Xrotation Yrotation
            JOINT RightToeBase
            {
              OFFSET 0 14.3502 0
              CHANNELS 3 Zrotation Xrotation Yrotation
              End Site
              {
                OFFSET 0.00608252 6.94971 -0.801061
              }
            }
          }
        }
      }
    }
  }
  JOINT LeftUpLeg
  {
    OFFSET 5.66615 -1.03903 -0.87161
    CHANNELS 3 Zrotation Xrotation Yrotation
    JOINT LeftUpLegRoll
    {
      OFFSET 0 16.6006 0
      CHANNELS 3 Zrotation Xrotation Yrotation
      JOINT LeftLeg
      {
        OFFSET 0 20.5571 0
        CHANNELS 3 Zrotation Xrotation Yrotation
        JOINT LeftLegRoll
        {
          OFFSET 0 20.8151 0
          CHANNELS 3 Zrotation Xrotation Yrotation
          JOINT LeftFoot
          {
            OFFSET 0 16.9757 0
            CHANNELS 3 Zrotation Xrotation Yrotation
            JOINT LeftToeBase
            {
              OFFSET 0 14.3502 0
              CHANNELS 3 Zrotation Xrotation Yrotation
              End Site
              {
                OFFSET -0.0272592 6.94971 -0.80106
              }
            }
          }
        }
      }
    }
  }
}
MOTION
Frames: 10
Frame Time: 0.00208333
52.4547 85.5489 9.23907 -2.39924 -4.58767 -4.88039 0.132354 -1.20707 -0.018427 0.264536 1.5886 -0.0441021 0.265277 3.23367 -0.0485624 -0.879124 10.6622 2.5658 -2.19161 3.13521 2.18427 51.9404 3.28307 3.23346 121.652 25.9409 -61.0209 1.52631e-006 -1.14173e-006 -6.61423e-006 -151.534 69.1453 131.916 7.56567e-007 4.28988e-006 -3.00582 8.02887 -4.95147 0.697709 -50.0771 0.43191 -1.4939 -117.528 28.4388 37.1673 6.88396e-006 1.44567e-006 4.84545e-006 166.694 76.4544 -154.759 -1.15031e-006 -1.84667e-006 3 -8.02897 -4.95145 -0.697688 174.945 -3.77166 1.34489 180 7.01518e-015 178.803 176.862 4.83505 179.789 2.08359e-006 -2.56809e-006 0.0405783 -18.698 67.9139 19.4634 8.13649 25.2327 -3.48774 -171.384 -2.94498 -1.65722 4.54188e-006 -4.6773e-006 -1.04212 -0.836956 -8.95822 0.63976 -1.60941e-006 -3.52245e-006 -0.0425475 18.2579 70.1772 -21.3912 -8.1366 25.2343 3.48554 
52.4414 85.5527 9.25976 -2.39443 -4.56844 -4.88688 0.130018 -1.21471 -0.0197511 0.259846 1.57334 -0.0461488 0.260607 3.2184 -0.0505313 -0.839129 10.736 2.55801 -2.22238 3.09524 2.18508 51.9384 3.31304 3.25478 121.554 25.9535 -60.9992 1.52631e-006 -1.14173e-006 -6.61423e-006 -151.498 69.1826 131.902 7.56567e-007 4.28988e-006 -3.00582 8.02887 -4.95147 0.697709 -50.0803 0.468613 -1.52007 -117.481 28.3726 37.0434 6.88396e-006 1.44567e-006 4.84545e-006 166.714 76.4563 -154.794 -1.15031e-006 -1.84667e-006 3 -8.02897 -4.95145 -0.697688 174.943 -3.7483 1.34043 180 7.01518e-015 178.803 176.868 4.83661 179.789 2.08359e-006 -2.56809e-006 0.0405783 -18.6981 67.9135 19.4632 8.13649 25.2327 -3.48774 -171.389 -2.93026 -1.65574 4.54188e-006 -4.6773e-006 -1.04223 -0.842172 -8.95379 0.638361 -1.60941e-006 -3.52245e-006 -0.042482 18.2651 70.1775 -21.3919 -8.1366 25.2343 3.48554 
52.4417 85.5885 9.25244 -2.39092 -4.55226 -4.89342 0.128099 -1.22112 -0.020975 0.255989 1.56052 -0.0481611 0.25677 3.20558 -0.0524798 -0.802666 10.795 2.5511 -2.25021 3.07174 2.18637 51.9362 3.3409 3.27465 121.458 25.9604 -60.9713 1.52631e-006 -1.14173e-006 -6.61423e-006 -151.467 69.2138 131.889 7.56567e-007 4.28988e-006 -3.00582 8.02887 -4.95147 0.697709 -50.0878 0.501204 -1.5426 -117.429 28.3088 36.9239 6.88396e-006 1.44567e-006 4.84545e-006 166.734 76.4575 -154.828 -1.15031e-006 -1.84667e-006 3 -8.02897 -4.95145 -0.697688 174.942 -3.7285 1.33456 180 7.01518e-015 178.803 176.877 4.83758 179.788 2.08359e-006 -2.56809e-006 0.0405783 -18.6986 67.9133 19.4632 8.13649 25.2327 -3.48774 -171.394 -2.9199 -1.65542 4.54188e-006 -4.6773e-006 -1.04249 -0.847866 -8.94716 0.636792 -1.60941e-006 -3.52245e-006 -0.0424654 18.2724 70.1767 -21.3917 -8.1366 25.2343 3.48554 
52.4368 85.5828 9.24636 -2.38892 -4.53959 -4.89998 0.126667 -1.22611 -0.0220724 0.25311 1.55052 -0.0501125 0.253911 3.19559 -0.0543838 -0.770098 10.8371 2.54513 -2.275 3.06649 2.18819 51.9338 3.36508 3.29198 121.365 25.9608 -60.9377 1.52631e-006 -1.14173e-006 -6.61423e-006 -151.44 69.2387 131.877 7.56567e-007 4.28988e-006 -3.00582 8.02887 -4.95147 0.697709 -50.1003 0.52859 -1.56061 -117.373 28.2478 36.8106 6.88396e-006 1.44567e-006 4.84545e-006 166.752 76.4582 -154.858 -1.15031e-006 -1.84667e-006 3 -8.02897 -4.95145 -0.697688 174.942 -3.71278 1.32712 180 7.01518e-015 178.803 176.889 4.83789 179.787 2.08359e-006 -2.56809e-006 0.0405783 -18.6995 67.9134 19.4633 8.13649 25.2327 -3.48774 -171.397 -2.91451 -1.65638 4.54188e-006 -4.6773e-006 -1.04294 -0.853998 -8.93797 0.635049 -1.60941e-006 -3.52245e-006 -0.0425069 18.2798 70.1746 -21.3902 -8.1366 25.2343 3.48554 
52.438 85.5528 9.24874 -2.38822 -4.53003 -4.90681 0.125668 -1.22994 -0.0231087 0.251084 1.54286 -0.0521472 0.251908 3.18793 -0.0563857 -0.741925 10.8635 2.5405 -2.29581 3.08193 2.19088 51.9311 3.39243 3.31158 121.27 25.9532 -60.892 1.52631e-006 -1.14173e-006 -6.61423e-006 -151.422 69.2565 131.868 7.56567e-007 4.28988e-006 -3.00582 8.02887 -4.95147 0.697709 -50.118 0.553615 -1.57611 -117.313 28.1882 36.7 6.88396e-006 1.44567e-006 4.84545e-006 166.77 76.4583 -154.886 -1.15031e-006 -1.84667e-006 3 -8.02897 -4.95145 -0.697688 174.944 -3.7006 1.31719 180 7.01518e-015 178.803 176.904 4.83748 179.786 2.08359e-006 -2.56809e-006 0.0405783 -18.7011 67.9138 19.4637 8.13649 25.2327 -3.48774 -171.4 -2.91458 -1.65908 4.54188e-006 -4.6773e-006 -1.04363 -0.861631 -8.92508 0.632869 -1.60941e-006 -3.52245e-006 -0.0426073 18.2882 70.1708 -21.3873 -8.1366 25.2343 3.48554 
52.4421 85.567 9.25749 -2.38843 -4.52279 -4.91411 0.124979 -1.233 -0.0241617 0.249654 1.53673 -0.054402 0.250503 3.1818 -0.058618 -0.718111 10.8777 2.53745 -2.31207 3.11776 2.19464 51.9276 3.42972 3.33827 121.171 25.9374 -60.8288 1.52631e-006 -1.14173e-006 -6.61423e-006 -151.415 69.2673 131.868 7.56567e-007 4.28988e-006 -3.00582 8.02887 -4.95147 0.697709 -50.1405 0.579624 -1.59159 -117.248 28.1281 36.5876 6.88396e-006 1.44567e-006 4.84545e-006 166.79 76.4576 -154.917 -1.15031e-006 -1.84667e-006 3 -8.02897 -4.95145 -0.697688 174.947 -3.69095 1.30431 180 7.01518e-015 178.803 176.925 4.83641 179.785 2.08359e-006 -2.56809e-006 0.0405783 -18.7034 67.9145 19.4643 8.13649 25.2327 -3.48774 -171.402 -2.91974 -1.66375 4.54188e-006 -4.6773e-006 -1.0446 -0.871585 -8.90809 0.630068 -1.60941e-006 -3.52245e-006 -0.0427564 18.2981 70.1654 -21.3831 -8.1366 25.2343 3.48554 
52.4358 85.5969 9.25583 -2.38949 -4.51769 -4.92179 0.124568 -1.23535 -0.0252244 0.248764 1.53203 -0.0568385 0.249641 3.1771 -0.0610416 -0.6982 10.8807 2.53575 -2.32423 3.17172 2.1993 51.9234 3.47537 3.37092 121.066 25.9144 -60.7504 1.52631e-006 -1.14173e-006 -6.61423e-006 -151.418 69.2715 131.874 7.56567e-007 4.28988e-006 -3.00582 8.02887 -4.95147 0.697709 -50.1672 0.606282 -1.60691 -117.179 28.0677 36.4735 6.88396e-006 1.44567e-006 4.84545e-006 166.812 76.4562 -154.949 -1.15031e-006 -1.84667e-006 3 -8.02897 -4.95145 -0.697688 174.951 -3.68365 1.28894 180 7.01518e-015 178.802 176.949 4.83476 179.783 2.08359e-006 -2.56809e-006 0.0405783 -18.7062 67.9154 19.4651 8.13649 25.2327 -3.48774 -171.404 -2.92933 -1.67011 4.54188e-006 -4.6773e-006 -1.0458 -0.883464 -8.88769 0.626755 -1.60941e-006 -3.52245e-006 -0.0429473 18.3094 70.1585 -21.3776 -8.1366 25.2343 3.48554 
52.4433 85.5903 9.25688 -2.39131 -4.51456 -4.92978 0.124404 -1.23702 -0.0262898 0.248356 1.5287 -0.0594188 0.249263 3.17376 -0.0636171 -0.681738 10.8736 2.53517 -2.33275 3.24153 2.2047 51.9186 3.52777 3.4084 120.958 25.885 -60.6591 1.52631e-006 -1.14173e-006 -6.61423e-006 -151.429 69.2698 131.887 7.56567e-007 4.28988e-006 -3.00582 8.02887 -4.95147 0.697709 -50.1975 0.633253 -1.6219 -117.109 28.0074 36.3578 6.88396e-006 1.44567e-006 4.84545e-006 166.836 76.4541 -154.982 -1.15031e-006 -1.84667e-006 3 -8.02897 -4.95145 -0.697688 174.956 -3.67853 1.27158 180 7.01517e-015 178.801 176.977 4.83264 179.781 2.08359e-006 -2.56809e-006 0.0405783 -18.7095 67.9166 19.466 8.13649 25.2327 -3.48774 -171.405 -2.94272 -1.67789 4.54188e-006 -4.6773e-006 -1.04719 -0.89687 -8.86461 0.623039 -1.60941e-006 -3.52245e-006 -0.0431728 18.3218 70.1506 -21.3712 -8.1366 25.2343 3.48554 
52.4492 85.5531 9.25917 -2.39382 -4.51322 -4.938 0.124457 -1.23805 -0.0273512 0.248374 1.52663 -0.0621045 0.249313 3.17169 -0.0663053 -0.668266 10.8574 2.53551 -2.33809 3.3249 2.21067 51.9133 3.58533 3.44957 120.846 25.8503 -60.557 1.52631e-006 -1.14173e-006 -6.61423e-006 -151.449 69.2626 131.905 7.56567e-007 4.28988e-006 -3.00582 8.02887 -4.95147 0.697709 -50.2309 0.660198 -1.63642 -117.036 27.9473 36.2405 6.88396e-006 1.44567e-006 4.84545e-006 166.861 76.4512 -155.017 -1.15031e-006 -1.84667e-006 3 -8.02897 -4.95145 -0.697688 174.962 -3.67541 1.25269 180 7.01517e-015 178.801 177.007 4.83007 179.778 2.08359e-006 -2.56809e-006 0.0405783 -18.7131 67.9179 19.467 8.13649 25.2327 -3.48774 -171.405 -2.95927 -1.68682 4.54188e-006 -4.6773e-006 -1.04872 -0.911407 -8.83954 0.61903 -1.60941e-006 -3.52245e-006 -0.043426 18.3348 70.1418 -21.3642 -8.1366 25.2343 3.48554 
52.4332 85.5642 9.23887 -2.39695 -4.51351 -4.94636 0.124695 -1.23849 -0.0284014 0.248762 1.52575 -0.0648574 0.249734 3.17081 -0.0690671 -0.657328 10.8331 2.53654 -2.34069 3.41955 2.21704 51.9075 3.64647 3.49332 120.732 25.8113 -60.4465 1.52631e-006 -1.14173e-006 -6.61423e-006 -151.476 69.2505 131.927 7.56567e-007 4.28988e-006 -3.00582 8.02887 -4.95147 0.697709 -50.2667 0.686783 -1.65031 -116.961 27.8877 36.1218 6.88396e-006 1.44567e-006 4.84545e-006 166.888 76.4478 -155.053 -1.15031e-006 -1.84667e-006 3 -8.02897 -4.95145 -0.697688 174.969 -3.6741 1.23275 180 7.01517e-015 178.8 177.039 4.82723 179.776 2.08359e-006 -2.56809e-006 0.0405783 -18.7171 67.9194 19.4682 8.13649 25.2327 -3.48774 -171.406 -2.97832 -1.69663 4.54188e-006 -4.6773e-006 -1.05034 -0.926677 -8.81321 0.614835 -1.60941e-006 -3.52245e-006 -0.0436999 18.3482 70.1325 -21.3567 -8.1366 25.2343 3.48554 
